# xmcd CD database file
#
# Track frame offsets:
#	182
#	16265
#	35877
#	53210
#	73127
#	86347
#	106987
#	125415
#	154742
#	177905
#	193455
#	216085
#	237055
#
# Disc length: 3445 seconds
#
# Revision: 26
# Processed by: cddbd v1.5.2PL0 Copyright (c) Steve Scherf et al.
# Submitted via: CDex 1.77
#
DISCID=b50d730d
DTITLE=Various Artist - Common Thread: The Songs Of The Eagles
DYEAR=1993
DGENRE=Other
TTITLE0=Take It Easy - Travis Tritt
TTITLE1=Peaceful Easy Feeling - Little Texas
TTITLE2=Desperado - Clint Black
TTITLE3=Heartache Tonight - John Anderson
TTITLE4=Tequila Sunrise - Alan Jackson
TTITLE5=Take It To The Limit - Suzy Bogguss
TTITLE6=I Can't Tell You Why - Vince Gill
TTITLE7=Lyin' Eyes - Diamond Rio
TTITLE8=New Kid In Town - Trisha Yearwood
TTITLE9=Saturday Night - Billy Dean
TTITLE10=Already Gone - Tanya Tucker
TTITLE11=Best Of My Love - Brooks and Dunn
TTITLE12=The Sad Cafe - Lorrie Morgan
EXTD=Common Thread: The Songs OfThe Eagles YEAR: 1993
EXTT0=
EXTT1=
EXTT2=
EXTT3=
EXTT4=
EXTT5=
EXTT6=
EXTT7=
EXTT8=
EXTT9=
EXTT10=
EXTT11=
EXTT12=
PLAYORDER=
